<?xml version="1.0" encoding="utf-8"?>
<svg viewBox="215.197 344.098 26 25" xmlns="http://www.w3.org/2000/svg">
  <path class="st0" d="M 216.678 347.257 L 216.678 360.495 C 216.678 361.466 217.472 362.26 218.443 362.26 L 237.859 362.26 C 238.829 362.26 239.624 361.466 239.624 360.495 L 239.624 347.257 C 239.624 346.286 238.829 345.492 237.859 345.492 L 218.443 345.492 C 217.472 345.492 216.678 346.286 216.678 347.257 Z" style="fill: none; stroke-linecap: round; stroke-linejoin: round; stroke-miterlimit: 10; stroke-width: 2px; stroke: rgb(0, 95, 115);"/>
  <line class="st0" x1="216.678" y1="358.73" x2="239.624" y2="358.73" style="fill: none; stroke-linecap: round; stroke-linejoin: round; stroke-miterlimit: 10; stroke-width: 2px; stroke: rgb(0, 95, 115);"/>
  <line class="st0" x1="221.973" y1="367.555" x2="234.329" y2="367.555" style="fill: none; stroke-linecap: round; stroke-linejoin: round; stroke-miterlimit: 10; stroke-width: 2px; stroke: rgb(0, 95, 115);"/>
  <path class="st0" d="M 225.503 362.26 C 225.503 364.113 224.886 366.32 223.915 367.555" style="fill: none; stroke-linecap: round; stroke-linejoin: round; stroke-miterlimit: 10; stroke-width: 2px; stroke: rgb(0, 95, 115);"/>
  <path class="st0" d="M 232.387 367.555 C 231.416 366.32 230.798 364.113 230.798 362.26" style="fill: none; stroke-linecap: round; stroke-linejoin: round; stroke-miterlimit: 10; stroke-width: 2px; stroke: rgb(0, 95, 115);"/>
  <path class="st0" d="M 233.446 356.082 L 222.856 356.082 C 222.326 356.082 221.973 355.729 221.973 355.2 L 221.973 349.022 C 221.973 348.493 222.326 348.14 222.856 348.14 L 233.446 348.14 C 233.976 348.14 234.329 348.493 234.329 349.022 L 234.329 355.2 C 234.329 355.729 233.976 356.082 233.446 356.082 Z" style="fill: none; stroke-linecap: round; stroke-linejoin: round; stroke-miterlimit: 10; stroke-width: 2px; stroke: rgb(0, 95, 115);"/>
  <line class="st0" x1="221.973" y1="350.787" x2="234.329" y2="350.787" style="fill: none; stroke-linecap: round; stroke-linejoin: round; stroke-miterlimit: 10; stroke-width: 2px; stroke: rgb(0, 95, 115);"/>
  <line class="st0" x1="231.681" y1="353.435" x2="229.916" y2="353.435" style="fill: none; stroke-linecap: round; stroke-linejoin: round; stroke-miterlimit: 10; stroke-width: 2px; stroke: rgb(0, 95, 115);"/>
</svg>