<?xml version="1.0" encoding="utf-8"?>
<svg viewBox="215.197 344.098 26 25" width="26" height="25" xmlns="http://www.w3.org/2000/svg">
  <path class="st0" d="M3,6v15c0,1.1,0.9,2,2,2h22c1.1,0,2-0.9,2-2V6c0-1.1-0.9-2-2-2H5C3.9,4,3,4.9,3,6z" transform="matrix(1, 0, 0, 1, 212.196716, 340.098358)" style="fill: none; stroke-linecap: round; stroke-linejoin: round; stroke-miterlimit: 10; stroke-width: 2px; stroke: rgb(0, 95, 115);"/>
  <line class="st0" x1="3" y1="19" x2="29" y2="19" transform="matrix(1, 0, 0, 1, 212.196716, 340.098358)" style="fill: none; stroke-linecap: round; stroke-linejoin: round; stroke-miterlimit: 10; stroke-width: 2px; stroke: rgb(0, 95, 115);"/>
  <line class="st0" x1="9" y1="29" x2="23" y2="29" transform="matrix(1, 0, 0, 1, 212.196716, 340.098358)" style="fill: none; stroke-linecap: round; stroke-linejoin: round; stroke-miterlimit: 10; stroke-width: 2px; stroke: rgb(0, 95, 115);"/>
  <path class="st0" d="M13,23c0,2.1-0.7,4.6-1.8,6" transform="matrix(1, 0, 0, 1, 212.196716, 340.098358)" style="fill: none; stroke-linecap: round; stroke-linejoin: round; stroke-miterlimit: 10; stroke-width: 2px; stroke: rgb(0, 95, 115);"/>
  <path class="st0" d="M20.8,29c-1.1-1.4-1.8-3.9-1.8-6" transform="matrix(1, 0, 0, 1, 212.196716, 340.098358)" style="fill: none; stroke-linecap: round; stroke-linejoin: round; stroke-miterlimit: 10; stroke-width: 2px; stroke: rgb(0, 95, 115);"/>
  <path class="st0" d="M22,16H10c-0.6,0-1-0.4-1-1V8c0-0.6,0.4-1,1-1h12c0.6,0,1,0.4,1,1v7C23,15.6,22.6,16,22,16z" transform="matrix(1, 0, 0, 1, 212.196716, 340.098358)" style="fill: none; stroke-linecap: round; stroke-linejoin: round; stroke-miterlimit: 10; stroke-width: 2px; stroke: rgb(0, 95, 115);"/>
  <line class="st0" x1="9" y1="10" x2="23" y2="10" transform="matrix(1, 0, 0, 1, 212.196716, 340.098358)" style="fill: none; stroke-linecap: round; stroke-linejoin: round; stroke-miterlimit: 10; stroke-width: 2px; stroke: rgb(0, 95, 115);"/>
  <line class="st0" x1="20" y1="13" x2="18" y2="13" transform="matrix(1, 0, 0, 1, 212.196716, 340.098358)" style="fill: none; stroke-linecap: round; stroke-linejoin: round; stroke-miterlimit: 10; stroke-width: 2px; stroke: rgb(0, 95, 115);"/>
</svg>