<?xml version="1.0" encoding="utf-8"?>
<svg viewBox="299.344 243.639 30 16" xmlns="http://www.w3.org/2000/svg">
  <circle class="st0" cx="7" cy="23" r="3" transform="matrix(1, 0, 0, 1, 298.344269, 233.639343)" style="fill: none; stroke-linecap: round; stroke-linejoin: round; stroke-miterlimit: 10; stroke-width: 2px; stroke: rgb(238, 155, 0);"/>
  <circle class="st0" cx="23" cy="23" r="3" transform="matrix(1, 0, 0, 1, 298.344269, 233.639343)" style="fill: none; stroke-linecap: round; stroke-linejoin: round; stroke-miterlimit: 10; stroke-width: 2px; stroke: rgb(238, 155, 0);"/>
  <line class="st0" x1="28" y1="19" x2="30" y2="19" transform="matrix(1, 0, 0, 1, 298.344269, 233.639343)" style="fill: none; stroke-linecap: round; stroke-linejoin: round; stroke-miterlimit: 10; stroke-width: 2px; stroke: rgb(238, 155, 0);"/>
  <line class="st0" x1="4" y1="16" x2="24" y2="16" transform="matrix(1, 0, 0, 1, 298.344269, 233.639343)" style="fill: none; stroke-linecap: round; stroke-linejoin: round; stroke-miterlimit: 10; stroke-width: 2px; stroke: rgb(238, 155, 0);"/>
  <line class="st0" x1="13" y1="10" x2="10" y2="16" transform="matrix(1, 0, 0, 1, 298.344269, 233.639343)" style="fill: none; stroke-linecap: round; stroke-linejoin: round; stroke-miterlimit: 10; stroke-width: 2px; stroke: rgb(238, 155, 0);"/>
  <path class="st0" d="M26,23h4c0.6,0,1-0.4,1-1v-2c0-2.2-1.8-4-4-4h-3l-3.8-4.6c-0.8-0.9-1.9-1.4-3.1-1.4H9.5c-1.5,0-2.9,0.9-3.6,2.2 L4,16H3c-1.1,0-2,0.9-2,2v4c0,0.6,0.4,1,1,1h2" transform="matrix(1, 0, 0, 1, 298.344269, 233.639343)" style="fill: none; stroke-linecap: round; stroke-linejoin: round; stroke-miterlimit: 10; stroke-width: 2px; stroke: rgb(238, 155, 0);"/>
  <line class="st0" x1="10" y1="23" x2="20" y2="23" transform="matrix(1, 0, 0, 1, 298.344269, 233.639343)" style="fill: none; stroke-linecap: round; stroke-linejoin: round; stroke-miterlimit: 10; stroke-width: 2px; stroke: rgb(238, 155, 0);"/>
</svg>