<?xml version="1.0" encoding="utf-8"?>
<svg viewBox="182.734 171.443 27.348 15.929" width="30" height="16" xmlns="http://www.w3.org/2000/svg">
  <circle class="st0" cx="189.101" cy="183.394" r="2.463" style="fill: none; stroke-linecap: round; stroke-linejoin: round; stroke-miterlimit: 10; stroke-width: 2px; stroke: rgb(238, 155, 0);"/>
  <circle class="st0" cx="202.236" cy="183.394" r="2.463" style="fill: none; stroke-linecap: round; stroke-linejoin: round; stroke-miterlimit: 10; stroke-width: 2px; stroke: rgb(238, 155, 0);"/>
  <line class="st0" x1="206.34" y1="180.11" x2="207.982" y2="180.11" style="fill: none; stroke-linecap: round; stroke-linejoin: round; stroke-miterlimit: 10; stroke-width: 2px; stroke: rgb(238, 155, 0);"/>
  <line class="st0" x1="186.638" y1="177.647" x2="203.056" y2="177.647" style="fill: none; stroke-linecap: round; stroke-linejoin: round; stroke-miterlimit: 10; stroke-width: 2px; stroke: rgb(238, 155, 0);"/>
  <line class="st0" x1="194.026" y1="172.722" x2="191.564" y2="177.647" style="fill: none; stroke-linecap: round; stroke-linejoin: round; stroke-miterlimit: 10; stroke-width: 2px; stroke: rgb(238, 155, 0);"/>
  <path class="st0" d="M 204.698 183.394 L 207.982 183.394 C 208.475 183.394 208.803 183.065 208.803 182.573 L 208.803 180.931 C 208.803 179.125 207.325 177.647 205.52 177.647 L 203.056 177.647 L 199.937 173.871 C 199.281 173.132 198.377 172.722 197.393 172.722 L 191.153 172.722 C 189.923 172.722 188.773 173.461 188.199 174.528 L 186.638 177.647 L 185.818 177.647 C 184.914 177.647 184.176 178.386 184.176 179.289 L 184.176 182.573 C 184.176 183.065 184.504 183.394 184.997 183.394 L 186.638 183.394" style="fill: none; stroke-linecap: round; stroke-linejoin: round; stroke-miterlimit: 10; stroke-width: 2px; stroke: rgb(238, 155, 0);"/>
  <line class="st0" x1="191.564" y1="183.394" x2="199.773" y2="183.394" style="fill: none; stroke-linecap: round; stroke-linejoin: round; stroke-miterlimit: 10; stroke-width: 2px; stroke: rgb(238, 155, 0);"/>
</svg>